<?xml version="1.0" encoding="UTF-8"?><svg id="b" xmlns="http://www.w3.org/2000/svg" viewBox="0 0 881 372.3"><defs><style>.e{fill:#f7f7f7;}</style></defs><g id="c"><g id="d"><path class="e" d="M373.7,0h-66.1l-84.8,234.3h59.8l14-41.4h87.5l14,41.4h60.4L373.7,0Zm-62.1,148.9l28.7-85.8,29,85.8h-57.7Z"/><polygon class="e" points="535.6 89.8 631 234.3 688.1 234.3 688.1 0 631 0 631 145.2 535.6 0 478.5 0 478.5 234.3 535.6 234.3 535.6 89.8"/><path class="e" d="M815.5,184c-4.8,3.8-11.3,5.7-19.6,5.7s-14.6-2.2-19.6-6.7c-5-4.5-7.9-10.9-8.8-19.4h-59.3c.4,15,4.6,27.8,12.5,38.5,7.9,10.6,18.5,18.7,31.8,24.1,13.3,5.4,28.2,8.1,45,8.1s32-3.1,44.6-9.5c12.6-6.3,22.2-14.8,28.8-25.4,6.6-10.6,9.9-22.5,9.9-35.5s-3.4-24.9-10.1-33.6c-6.7-8.7-14.7-15.3-24-19.9-9.2-4.6-21.2-9.3-36-14.3-14.8-4.8-25.6-9.2-32.6-13.4-7-4.1-10.4-9.9-10.4-17.3s2.1-11.9,6.2-15.5c4.1-3.6,9.6-5.4,16.3-5.4s14.2,2.1,19.2,6.4c5,4.2,7.7,10.1,8.1,17.4h60.3c-1.1-21.5-9.3-38.3-24.8-50.4-15.4-12.1-35.7-18.1-60.9-18.1s-44.9,6-60.3,18.1c-15.4,12.1-23.1,28.7-23.1,50s3.4,26,10.1,34.9c6.7,8.9,14.8,15.6,24.1,20.2,9.3,4.6,21.4,9.1,36.2,13.7,10.2,3,18.1,5.8,23.6,8.1,5.5,2.4,10.2,5.4,14,9.1,3.8,3.7,5.7,8.4,5.7,14s-2.4,12-7.2,15.8Z"/><path class="e" d="M203,244.1c-21.4,1.7-24.8,10.3-50.2,10.3-27.8,0-26.5-10.5-54.3-10.5-27.8,0-29,10.5-56.8,10.5-22.8,0-25.6-6.2-41.6-9.2v64H203v-65Z"/><path class="e" d="M57.1,243.4v-105.6h88.8v106.7c2.1,.2,4.3,.2,6.8,.2,25.4,0,28.8-8.6,50.2-10.3V0h-57.1V91.8H57.1V0H0V235.6c16,3.1,18.8,9.2,41.6,9.2s11.3-.5,15.5-1.4Z"/><path class="e" d="M0,322.3c0,2,1.6,3.6,3.6,3.6H93.9v43.8c0,1.4,1.1,2.5,2.5,2.5h10.2c1.4,0,2.5-1.1,2.5-2.5v-43.8h90.3c2,0,3.6-1.6,3.6-3.6v-9.2L0,313.3v9Z"/><path class="e" d="M244.6,286.3h18.8c-.5,4.7-2.2,8.4-5.2,11.2-3,2.8-6.8,4.1-11.4,4.1s-6.3-.8-8.9-2.3c-2.6-1.5-4.7-3.7-6.2-6.5-1.5-2.8-2.3-6.1-2.3-9.8s.8-7,2.3-9.8c1.5-2.8,3.6-5,6.2-6.5,2.6-1.5,5.6-2.3,8.9-2.3s6.2,.8,8.7,2.3c2.5,1.5,4.4,3.6,5.7,6.4h7.4c-1.8-4.5-4.6-8-8.4-10.5-3.9-2.5-8.3-3.7-13.3-3.7s-8.4,1-12,3.1c-3.6,2.1-6.5,4.9-8.6,8.6-2.1,3.7-3.2,7.8-3.2,12.4s1.1,8.7,3.2,12.4c2.1,3.7,5,6.5,8.6,8.6,3.6,2.1,7.6,3.1,12,3.1s7.9-.9,11.3-2.8c3.4-1.9,6.1-4.4,8.2-7.7,2.1-3.2,3.3-6.8,3.7-10.7v-4.7h-25.4v5Z"/><polygon class="e" points="278.1 306.8 303.5 306.8 303.5 301.7 284.3 301.7 284.3 285.5 301.5 285.5 301.5 280.4 284.3 280.4 284.3 264.6 303.5 264.6 303.5 259.5 278.1 259.5 278.1 306.8"/><path class="e" d="M341.3,284.6c-1.4-1.1-3-1.8-4.7-2.1,2.5-.8,4.5-2.1,6-4,1.5-1.8,2.3-4.1,2.3-6.9s-.6-4.3-1.7-6.1c-1.1-1.8-2.8-3.2-5.1-4.3-2.3-1.1-5-1.6-8.2-1.6h-16.9v47.2h17.6c3.2,0,5.9-.6,8.2-1.7,2.3-1.1,4.1-2.6,5.3-4.5,1.2-1.9,1.8-4.1,1.8-6.5s-.4-3.7-1.3-5.4c-.8-1.7-2-3.1-3.4-4.2Zm-22.2-19.9h10.2c3,0,5.3,.7,6.8,2,1.6,1.4,2.4,3.2,2.4,5.6s-.8,4.3-2.4,5.6c-1.6,1.4-3.8,2-6.7,2h-10.4v-15.3Zm18.1,34.9c-1.7,1.4-4.1,2.2-7.2,2.2h-10.9v-16.7h10.7c3,0,5.4,.8,7.3,2.3,1.8,1.5,2.7,3.6,2.7,6.2s-.9,4.6-2.6,6Z"/><path class="e" d="M368.6,259.8l-17.1,47h6.5l3.8-10.5h20.6l3.8,10.5h6.5l-17-47h-7.1Zm-5,31.5l8.5-23.9,8.5,23.9h-17.1Z"/><path class="e" d="M369.1,253.8c.7-.7,1.1-1.5,1.1-2.5s-.4-1.8-1.1-2.5c-.7-.7-1.5-1.1-2.5-1.1s-1.8,.4-2.5,1.1c-.7,.7-1.1,1.5-1.1,2.5s.3,1.8,1.1,2.5c.7,.7,1.5,1,2.5,1s1.8-.3,2.5-1Z"/><path class="e" d="M380.2,253.8c.7-.7,1.1-1.5,1.1-2.5s-.4-1.8-1.1-2.5c-.7-.7-1.5-1.1-2.5-1.1s-1.8,.4-2.5,1.1c-.7,.7-1,1.5-1,2.5s.3,1.8,1,2.5,1.5,1,2.5,1,1.8-.3,2.5-1Z"/><path class="e" d="M429.4,289.5c0,4.2-1,7.3-3.1,9.4-2.1,2-4.9,3.1-8.5,3.1s-6.5-1-8.6-3.1c-2.1-2-3.1-5.2-3.1-9.4v-29.9h-6.2v29.8c0,3.9,.8,7.2,2.3,9.9,1.6,2.7,3.7,4.7,6.4,6,2.7,1.3,5.7,2,9,2s6.4-.7,9.1-2c2.7-1.3,4.8-3.3,6.4-6,1.6-2.7,2.4-6,2.4-9.9v-29.8h-6.2v29.9Z"/><path class="e" d="M474,262.4c-3.8-1.9-8.2-2.9-13.4-2.9h-14.7v47.2h14.7c5.2,0,9.6-.9,13.4-2.8,3.8-1.9,6.7-4.6,8.7-8.1,2-3.5,3-7.7,3-12.6s-1-9-3-12.6c-2-3.6-4.9-6.3-8.7-8.2Zm.6,34.4c-3.2,3.2-7.9,4.8-14,4.8h-8.5v-37.1h8.5c6.1,0,10.7,1.7,13.9,4.9,3.2,3.3,4.8,7.9,4.8,13.8s-1.6,10.4-4.8,13.6Z"/><polygon class="e" points="493.8 306.8 519.2 306.8 519.2 301.7 500 301.7 500 285.5 517.2 285.5 517.2 280.4 500 280.4 500 264.6 519.2 264.6 519.2 259.5 493.8 259.5 493.8 306.8"/><path class="e" d="M557.4,282.1c1.9-2.5,2.8-5.4,2.8-8.6s-.6-5-1.8-7.1c-1.2-2.1-3.1-3.7-5.5-4.9-2.5-1.2-5.5-1.8-9-1.8h-15.3v47.2h6.2v-19.3h7.5l11.3,19.3h7.4l-11.9-19.8c3.8-.8,6.6-2.5,8.4-4.9Zm-22.7,.5v-17.9h9.1c3.4,0,5.9,.8,7.6,2.3,1.6,1.5,2.5,3.7,2.5,6.5s-.8,5-2.5,6.6c-1.7,1.7-4.2,2.5-7.5,2.5h-9.1Z"/><polygon class="e" points="569.8 306.8 595.2 306.8 595.2 301.7 576 301.7 576 285.5 593.2 285.5 593.2 280.4 576 280.4 576 264.6 595.2 264.6 595.2 259.5 569.8 259.5 569.8 306.8"/><rect class="e" x="604.6" y="259.6" width="6.2" height="47.2"/><polygon class="e" points="652.2 297.1 627.4 259.5 621.3 259.5 621.3 306.8 627.4 306.8 627.4 269.2 652.2 306.8 658.4 306.8 658.4 259.5 652.2 259.5 652.2 297.1"/><rect class="e" x="668.9" y="259.6" width="6.2" height="47.2"/><path class="e" d="M704.8,286.3h18.8c-.5,4.7-2.2,8.4-5.2,11.2-3,2.8-6.8,4.1-11.4,4.1s-6.3-.8-8.9-2.3c-2.6-1.5-4.7-3.7-6.2-6.5-1.5-2.8-2.3-6.1-2.3-9.8s.8-7,2.3-9.8c1.5-2.8,3.6-5,6.2-6.5,2.6-1.5,5.6-2.3,8.9-2.3s6.2,.8,8.7,2.3c2.5,1.5,4.4,3.6,5.7,6.4h7.4c-1.8-4.5-4.6-8-8.4-10.5-3.9-2.5-8.3-3.7-13.3-3.7s-8.4,1-12,3.1c-3.6,2.1-6.5,4.9-8.6,8.6-2.1,3.7-3.2,7.8-3.2,12.4s1.1,8.7,3.2,12.4c2.1,3.7,5,6.5,8.6,8.6,3.6,2.1,7.6,3.1,12,3.1s7.9-.9,11.3-2.8c3.4-1.9,6.1-4.4,8.2-7.7,2.1-3.2,3.3-6.8,3.7-10.7v-4.7h-25.4v5Z"/><path class="e" d="M767.6,289.5c0,4.2-1,7.3-3.1,9.4-2.1,2-4.9,3.1-8.5,3.1s-6.5-1-8.6-3.1c-2.1-2-3.1-5.2-3.1-9.4v-29.9h-6.2v29.8c0,3.9,.8,7.2,2.3,9.9,1.6,2.7,3.7,4.7,6.4,6,2.7,1.3,5.7,2,9,2s6.4-.7,9-2c2.7-1.3,4.8-3.3,6.4-6,1.6-2.7,2.4-6,2.4-9.9v-29.8h-6.2v29.9Z"/><polygon class="e" points="815.1 297.1 790.3 259.5 784.1 259.5 784.1 306.8 790.3 306.8 790.3 269.2 815.1 306.8 821.2 306.8 821.2 259.5 815.1 259.5 815.1 297.1"/><path class="e" d="M850.9,286.3h18.8c-.5,4.7-2.2,8.4-5.2,11.2-3,2.8-6.8,4.1-11.4,4.1s-6.3-.8-8.9-2.3c-2.6-1.5-4.7-3.7-6.2-6.5-1.5-2.8-2.3-6.1-2.3-9.8s.8-7,2.3-9.8c1.5-2.8,3.6-5,6.2-6.5,2.6-1.5,5.6-2.3,8.9-2.3s6.2,.8,8.7,2.3c2.5,1.5,4.4,3.6,5.7,6.4h7.4c-1.8-4.5-4.6-8-8.4-10.5-3.9-2.5-8.3-3.7-13.3-3.7s-8.4,1-12,3.1c-3.6,2.1-6.5,4.9-8.6,8.6-2.1,3.7-3.2,7.8-3.2,12.4s1.1,8.7,3.2,12.4c2.1,3.7,5,6.5,8.6,8.6,3.6,2.1,7.6,3.1,12,3.1s7.9-.9,11.3-2.8c3.4-1.9,6.1-4.4,8.2-7.7,2.1-3.2,3.3-6.8,3.7-10.7v-4.7h-25.4v5Z"/></g></g></svg>