<?xml version="1.0" encoding="utf-8"?>
<!-- Generator: Adobe Illustrator 27.0.1, SVG Export Plug-In . SVG Version: 6.00 Build 0)  -->
<svg version="1.1" id="visual" xmlns="http://www.w3.org/2000/svg" xmlns:xlink="http://www.w3.org/1999/xlink" x="0px" y="0px"
	 viewBox="0 0 960 54" style="enable-background:new 0 0 960 54;" xml:space="preserve">
<style type="text/css">
	.st0{fill:#EFEFEF;}
</style>
<path class="st0" d="M0,22.9l26.7-4.2c26.6-4.1,80-12.5,133.3-11.3s106.7,11.8,160,13.3s106.7-6.1,160-12.1S586.7-1.8,640,3.1
	c53.3,4.8,106.7,18.8,160,19.5c53.3,0.6,106.7-12,133.3-18.4L960-2.1v154h-26.7c-26.6,0-80,0-133.3,0s-106.7,0-160,0s-106.7,0-160,0
	s-106.7,0-160,0s-106.7,0-160,0s-106.7,0-133.3,0H0V22.9z"/>
</svg>
