<?xml version="1.0" encoding="utf-8"?>
<!-- Generator: Adobe Illustrator 26.5.0, SVG Export Plug-In . SVG Version: 6.00 Build 0)  -->
<svg version="1.1" id="Layer_1" xmlns="http://www.w3.org/2000/svg" xmlns:xlink="http://www.w3.org/1999/xlink" x="0px" y="0px"
	 viewBox="0 0 1024 1024" style="enable-background:new 0 0 1024 1024;" xml:space="preserve">
<style type="text/css">
	.st0{fill:#07bddb;}
</style>
<path class="st0" d="M128,554.7h768c23.6,0,42.7-19.1,42.7-42.7s-19.1-42.7-42.7-42.7H128c-23.6,0-42.7,19.1-42.7,42.7
	S104.4,554.7,128,554.7z M128,298.7h768c23.6,0,42.7-19.1,42.7-42.7s-19.1-42.7-42.7-42.7H128c-23.6,0-42.7,19.1-42.7,42.7
	S104.4,298.7,128,298.7z M128,810.7h768c23.6,0,42.7-19.1,42.7-42.7s-19.1-42.7-42.7-42.7H128c-23.6,0-42.7,19.1-42.7,42.7
	S104.4,810.7,128,810.7z"/>
</svg>
