<?xml version="1.0" encoding="utf-8"?>
<!-- Generator: Adobe Illustrator 27.0.0, SVG Export Plug-In . SVG Version: 6.00 Build 0)  -->
<svg version="1.1" id="Layer_1" xmlns="http://www.w3.org/2000/svg" xmlns:xlink="http://www.w3.org/1999/xlink" x="0px" y="0px"
	 viewBox="0 0 700 700" xml:space="preserve" fill="#07bddb">
<g>
	<path d="M106.5,199.9c-1,3.2-1.5,6.6-1.5,10.1v280c0,19.3,15.7,35,35,35h420c19.3,0,35-15.7,35-35V210c0-3.5-0.5-6.9-1.5-10.1
		L378,335.6c-17.1,10.8-38.9,10.8-55.9,0L106.5,199.9z"/>
	<path d="M566.4,175.6c-2.1-0.4-4.2-0.6-6.4-0.6H140c-2.2,0-4.3,0.2-6.4,0.6L340.7,306c5.7,3.6,12.9,3.6,18.6,0L566.4,175.6z"/>
</g>
</svg>
