<?xml version="1.0" encoding="utf-8"?>
<!-- Generator: Adobe Illustrator 27.0.0, SVG Export Plug-In . SVG Version: 6.00 Build 0)  -->
<svg version="1.1" id="Layer_1" xmlns="http://www.w3.org/2000/svg" xmlns:xlink="http://www.w3.org/1999/xlink" x="0px" y="0px"
	viewBox="0 0 700 700" xml:space="preserve" fill="#07bddb">


<g>
	<path class="st0" d="M295.3,404.7c29.3,29.3,61.5,52.9,94.4,70.2l61.7-63l112.2,25.9c11.7,2.7,21.8,9.8,21.8,21.8v77.8
		c0,25-19.3,45.6-44.2,47.3c-97.7,6.8-210.6-37.2-299.7-126.3c-89.1-89.1-133-202-126.3-299.7c1.7-24.9,22.3-44.2,47.3-44.2h77.8
		c12,0,19.1,10.1,21.8,21.7l25.9,112.3l-63,61.7C242.4,343.2,266,375.4,295.3,404.7L295.3,404.7z"/>
</g>
</svg>
